%
M48
M72
T01C0.01969
T02C0.02362
T03C0.03200
T04C0.04000
T05C0.04400
T06C0.12598
%
T01
X223200Y223200
X252000Y312000
X260000Y320000
X311200Y308000
X76000Y295600
X218400Y170400
X157800Y136800
X30000Y285000
X63228Y286772
X124000Y310400
X163800Y301000
X158000Y300000
X113000Y300000
X128800Y290000
X158800Y285800
X344800Y287600
X308000Y294400
X264800Y270400
X328800Y265600
X290200Y291000
X333000Y300600
X303200Y296000
X126200Y238600
X288600Y227800
X216000Y243200
X106400Y160000
X53600Y160000
X232400Y169000
X86800Y209600
T02
X254000Y237000
X248000Y233000
X243000Y228000
X237000Y219000
X262000Y218000
T03
X224500Y115000
X205500Y115000
X45000Y60000
X15000Y60000
T04
X15000Y200000
X25000Y200000
X35000Y200000
X15000Y210000
X25000Y210000
X35000Y210000
X170000Y45000
X180000Y45000
X190000Y45000
X200000Y45000
X210000Y45000
X220000Y45000
X230000Y45000
X240000Y45000
X250000Y45000
X260000Y45000
X270000Y45000
X280000Y45000
X15000Y115000
X15000Y105000
X15000Y95000
X150000Y210000
X160000Y210000
X170000Y210000
X180000Y210000
X190000Y210000
X200000Y210000
X210000Y210000
X220000Y210000
T05
X75000Y60000
X75000Y100000
X15000Y150000
X25000Y150000
X35000Y150000
X45000Y150000
X55000Y150000
X65000Y150000
X75000Y150000
X85000Y150000
X95000Y150000
X105000Y150000
X115000Y150000
X125000Y150000
X135000Y150000
X145000Y150000
X145000Y180000
X135000Y180000
X125000Y180000
X115000Y180000
X105000Y180000
X95000Y180000
X85000Y180000
X75000Y180000
X65000Y180000
X55000Y180000
X45000Y180000
X35000Y180000
X25000Y180000
X15000Y180000
X110000Y105000
X110000Y95000
X110000Y85000
X110000Y75000
X110000Y65000
X110000Y55000
X110000Y45000
X140000Y45000
X140000Y55000
X140000Y65000
X140000Y75000
X140000Y85000
X140000Y95000
X140000Y105000
T06
X0Y315000
X0Y40000
X360000Y40000
X365000Y310000
M30
